<?xml version="1.0" standalone="no"?>
<!DOCTYPE svg PUBLIC "-//W3C//DTD SVG 20010904//EN"
 "http://www.w3.org/TR/2001/REC-SVG-20010904/DTD/svg10.dtd">
<svg version="1.0" xmlns="http://www.w3.org/2000/svg"
 width="200.000000pt" height="200.000000pt" viewBox="0 0 200.000000 200.000000"
 preserveAspectRatio="xMidYMid meet">
<metadata>
Created by potrace 1.14, written by Peter Selinger 2001-2017
</metadata>
<g transform="translate(0.000000,200.000000) scale(0.100000,-0.100000)"
fill="#000000" stroke="none">
<path d="M27 1983 c3 -12 12 -24 22 -26 11 -3 10 -5 -6 -6 l-21 -1 -2 -355 -1
-356 21 13 c11 7 16 14 11 16 -5 2 -6 12 -3 24 3 14 1 19 -6 14 -7 -4 -12 -2
-12 3 0 6 7 11 16 11 10 0 14 7 12 18 -2 9 -10 16 -18 14 -10 -2 -11 0 -2 11
7 8 9 23 5 32 -4 13 -3 16 6 10 10 -6 11 -3 1 15 -8 15 -8 20 -1 16 6 -4 11 0
11 8 0 9 -3 16 -7 16 -5 0 -8 11 -8 25 0 14 4 25 8 25 5 0 6 19 3 43 -4 28 -3
35 3 22 6 -16 10 -8 14 35 4 30 7 67 7 83 0 15 5 27 12 27 9 0 9 3 -1 9 -11 7
-12 13 -4 23 20 25 19 53 -3 71 -12 9 -27 17 -33 17 -19 0 -12 17 8 23 14 3
18 11 14 26 -4 17 -1 21 18 21 24 1 24 1 4 16 -20 15 -20 15 1 20 15 4 21 14
22 32 0 22 -2 24 -13 9 -11 -15 -13 -15 -30 1 -10 9 -15 12 -11 5 11 -20 -15
-26 -29 -7 -13 18 -14 18 -8 -3z m33 -47 c0 -3 -4 -8 -10 -11 -5 -3 -10 -1
-10 4 0 6 5 11 10 11 6 0 10 -2 10 -4z m7 -112 c-3 -3 -12 -4 -19 -1 -8 3 -5
6 6 6 11 1 17 -2 13 -5z m-14 -39 c-3 -9 -8 -14 -10 -11 -3 3 -2 9 2 15 9 16
15 13 8 -4z"/>
<path d="M137 1984 c4 -12 8 -13 14 -3 6 10 11 10 25 -2 12 -9 15 -10 10 -1
-7 12 15 11 62 -4 6 -2 12 1 12 7 0 5 11 2 24 -8 16 -12 20 -20 12 -25 -7 -5
-5 -8 6 -8 20 0 32 16 19 25 -6 3 -8 12 -4 20 4 13 -11 15 -91 15 -83 0 -95
-2 -89 -16z"/>
<path d="M338 1966 c-3 -27 -1 -33 9 -25 9 8 17 6 28 -5 15 -15 15 -16 -5 -16
-12 0 -18 -4 -15 -10 8 -12 -13 -42 -24 -35 -4 2 -8 -2 -8 -10 0 -8 4 -15 9
-15 4 0 8 5 8 10 0 6 5 10 11 10 5 0 7 -4 4 -10 -3 -5 1 -10 10 -10 9 0 13 4
10 10 -3 6 1 7 9 4 12 -5 13 -11 5 -25 -10 -19 -9 -19 27 -23 6 -1 19 -7 28
-15 9 -8 19 -11 23 -7 3 3 1 6 -5 6 -7 0 -12 4 -12 9 0 5 10 7 22 3 14 -3 19
-2 14 6 -4 7 -15 12 -24 12 -13 0 -11 4 6 16 13 9 26 13 29 10 4 -3 1 -6 -5
-6 -7 0 -12 -4 -12 -8 0 -5 13 -7 30 -4 16 2 27 8 24 13 -3 5 1 9 8 9 9 0 10
2 1 8 -14 9 -21 46 -8 47 6 0 15 4 22 8 6 4 14 3 18 -3 4 -6 11 -8 16 -4 20
12 -5 24 -39 19 -24 -4 -32 -3 -24 3 11 7 11 10 -2 15 -9 4 -16 2 -16 -3 0 -6
-11 -10 -25 -10 -14 0 -25 -4 -25 -10 0 -5 -4 -10 -10 -10 -5 0 -10 4 -10 10
0 12 49 38 81 42 13 2 33 9 43 15 14 8 -9 11 -101 12 l-121 1 -4 -34z m122
-70 c-7 -7 -13 -7 -20 0 -6 6 -3 10 10 10 13 0 16 -4 10 -10z"/>
<path d="M780 1984 c0 -9 11 -14 28 -14 21 0 24 -2 12 -10 -8 -5 -23 -7 -32
-4 -10 3 -18 1 -18 -4 0 -14 32 -25 39 -14 9 14 59 23 65 13 4 -5 0 -11 -6
-14 -10 -4 -10 -7 0 -18 11 -11 13 -11 10 -1 -2 8 8 21 22 30 18 13 22 13 15
3 -6 -11 -4 -13 9 -8 13 5 17 3 13 -6 -3 -8 1 -14 9 -14 7 0 11 4 8 9 -3 4 -1
8 4 8 6 0 13 -7 16 -15 3 -9 11 -15 18 -14 21 4 88 -33 81 -44 -4 -6 1 -8 11
-4 10 4 27 0 39 -8 12 -8 18 -15 13 -15 -5 0 -1 -9 9 -20 17 -19 41 -29 32
-12 -3 4 1 13 9 20 12 11 15 10 20 -2 3 -9 10 -13 15 -10 5 3 9 0 9 -6 0 -6 5
-8 10 -5 6 3 10 1 10 -4 0 -6 5 -11 11 -11 17 0 -3 21 -39 43 -28 16 -32 16
-47 1 -19 -19 -26 -15 -27 17 -1 13 -6 30 -11 37 -13 16 -5 24 27 26 14 0 26
7 26 14 0 7 13 12 30 12 17 0 30 -5 30 -11 0 -5 -4 -8 -9 -5 -5 3 -11 -2 -13
-12 -4 -14 1 -17 20 -16 29 1 41 22 21 35 -11 7 -11 9 2 9 9 0 19 -7 23 -15 3
-8 10 -15 15 -15 6 0 8 7 5 15 -5 12 -2 14 12 8 17 -6 17 -5 5 10 -12 15 -12
17 2 12 11 -5 15 0 13 19 l-1 26 -282 -1 c-236 -1 -283 -3 -283 -15z m390 -4
c0 -5 -2 -10 -4 -10 -3 0 -8 5 -11 10 -3 6 -1 10 4 10 6 0 11 -4 11 -10z m-56
-56 c9 -24 2 -26 -12 -4 -7 11 -8 20 -3 20 5 0 12 -7 15 -16z m26 -56 c0 -5
-9 -4 -20 2 -11 6 -20 12 -20 14 0 2 9 2 20 -1 11 -3 20 -9 20 -15z"/>
<path d="M1405 1990 c3 -5 -2 -10 -12 -10 -14 0 -15 -2 -4 -9 7 -5 22 -6 34
-3 14 3 18 1 13 -7 -4 -6 -12 -8 -18 -5 -7 4 -8 2 -4 -5 6 -9 11 -9 21 -1 8 7
18 9 24 6 5 -4 17 1 25 10 9 8 16 11 16 5 0 -6 7 -11 15 -11 8 0 15 -5 15 -12
0 -6 3 -8 6 -5 4 4 1 13 -6 22 -8 10 -9 15 -1 15 6 0 11 3 11 8 0 4 -20 7 -45
8 -43 0 -59 -9 -32 -19 7 -4 8 -6 1 -6 -6 -1 -17 6 -24 14 -14 17 -45 21 -35
5z"/>
<path d="M1557 1993 c-4 -3 -7 -13 -6 -22 0 -12 3 -11 9 4 5 11 9 14 9 8 1 -7
8 -13 17 -13 8 0 12 5 9 10 -9 14 8 12 24 -2 9 -9 12 -9 7 -1 -3 6 0 14 6 16
7 3 -5 6 -28 6 -22 1 -44 -2 -47 -6z"/>
<path d="M1675 1990 c3 -5 13 -10 21 -10 8 0 14 5 14 10 0 6 -9 10 -21 10 -11
0 -17 -4 -14 -10z"/>
<path d="M1729 1993 c-1 -5 -1 -11 0 -15 0 -5 -6 -8 -14 -8 -9 0 -18 -6 -21
-13 -5 -15 -74 -19 -74 -5 0 4 -10 7 -22 7 -17 -1 -19 -2 -5 -6 9 -2 17 -8 17
-13 0 -4 11 -11 25 -14 14 -4 25 -11 25 -16 0 -6 5 -10 11 -10 5 0 7 6 3 13
-6 9 -4 9 8 -1 9 -7 14 -21 11 -32 -3 -12 0 -20 7 -20 7 0 10 7 6 17 -4 10 -4
14 -1 11 4 -4 17 -3 30 2 19 7 22 5 21 -13 -1 -22 -4 -23 -66 -26 -15 -1 -20
-4 -13 -9 17 -11 -7 -39 -40 -47 -15 -4 -27 -13 -27 -21 0 -9 -11 -14 -29 -14
-16 0 -31 -5 -33 -11 -2 -6 -15 -12 -30 -12 -14 -1 -24 -5 -22 -9 2 -4 0 -9
-6 -13 -5 -3 -10 -1 -10 4 0 6 -10 11 -23 11 -20 0 -23 5 -21 30 2 32 -19 43
-30 15 -3 -8 -11 -12 -19 -9 -8 3 -14 -2 -14 -10 0 -8 4 -13 9 -10 5 4 20 -4
33 -16 14 -13 29 -19 36 -15 7 5 17 1 25 -9 7 -10 24 -19 37 -20 17 -1 22 -5
16 -12 -5 -6 -10 -19 -12 -30 -1 -10 -6 -24 -9 -30 -4 -6 -1 -20 7 -30 12 -17
13 -16 11 19 -2 24 1 36 8 34 6 -2 10 -11 8 -19 -1 -9 6 -18 17 -21 26 -6 33
2 18 19 -33 36 -37 44 -27 44 6 0 13 -7 17 -16 3 -8 12 -13 20 -10 8 3 11 1 8
-4 -3 -6 -1 -10 4 -10 6 0 11 6 11 13 1 6 8 -1 17 -18 10 -16 16 -33 15 -38
-1 -4 2 -6 7 -5 5 2 9 -1 10 -5 0 -4 7 -14 15 -23 8 -8 13 -22 10 -32 -5 -14
-4 -14 4 -2 6 8 8 18 6 22 -3 4 0 8 5 8 18 0 13 -17 -14 -49 -17 -20 -31 -28
-42 -24 -10 4 -14 2 -10 -4 10 -17 -48 -26 -75 -13 -22 11 -22 10 2 -10 l25
-22 -23 5 c-13 3 -38 -1 -55 -8 -18 -8 -30 -15 -27 -15 3 -1 14 -3 24 -5 11
-2 24 -11 29 -21 8 -13 11 -14 18 -3 7 11 9 11 9 1 0 -17 26 -43 34 -35 3 4 6
1 6 -5 0 -6 12 -18 28 -27 l27 -15 -30 6 c-16 3 -37 7 -45 9 -8 2 -19 4 -23 4
-4 1 -7 9 -5 19 2 12 -3 16 -18 14 -14 -2 -31 8 -48 28 -31 38 -33 50 -6 50
11 0 20 5 20 10 0 6 8 10 17 10 13 0 14 3 5 12 -9 9 -15 8 -25 -5 -11 -17 -14
-17 -45 -1 -18 9 -42 14 -53 11 -10 -3 -22 -1 -25 4 -3 5 2 9 10 9 9 0 15 6
14 13 -2 6 3 11 11 9 12 -3 12 -1 1 13 -13 15 -15 15 -22 -4 -14 -39 -35 -24
-54 39 -8 26 -15 34 -30 32 -10 -2 -32 -4 -49 -5 -16 -1 -40 -8 -51 -14 -12
-7 -24 -10 -27 -6 -4 3 -13 0 -21 -6 -9 -7 -24 -10 -37 -6 -16 5 -20 3 -17 -6
3 -8 12 -13 21 -13 9 1 14 -2 11 -7 -3 -5 6 -23 20 -40 14 -17 26 -37 26 -45
0 -8 5 -14 12 -14 9 0 9 -3 1 -11 -16 -16 -5 -39 17 -39 26 0 36 -38 15 -54
-16 -12 -16 -13 -1 -19 9 -4 16 -14 16 -24 -1 -15 -4 -14 -23 7 -23 27 -57 29
-57 3 0 -12 -3 -13 -14 -4 -10 8 -16 8 -25 -3 -9 -11 -9 -16 -1 -21 7 -4 10
-19 7 -33 -3 -14 2 -37 10 -51 14 -25 14 -25 -2 -6 -16 20 -17 20 -14 -5 2
-14 0 -30 -3 -36 -4 -5 -5 -19 -3 -30 2 -10 4 -26 5 -34 1 -10 4 -9 9 5 7 16
9 13 13 -17 l4 -38 -22 21 -23 21 6 -21 c4 -15 1 -21 -10 -21 -11 0 -18 13
-22 38 -4 20 -9 46 -13 57 -3 11 -5 25 -3 30 9 30 9 65 0 65 -6 0 -7 -5 -3
-12 5 -8 2 -9 -11 -5 -15 6 -17 3 -13 -23 3 -17 1 -33 -4 -36 -4 -3 -8 -17 -8
-32 0 -37 -22 -13 -27 29 -3 34 -46 92 -58 81 -5 -4 -5 -2 -2 4 4 7 0 15 -9
18 -9 4 -14 9 -11 12 3 3 12 2 19 -2 22 -14 37 -13 50 4 10 12 10 14 1 8 -22
-12 -14 9 10 32 13 12 35 22 49 22 14 0 31 6 37 14 7 8 27 17 45 20 29 6 33
10 32 34 -3 41 -26 103 -37 97 -5 -4 -9 -1 -9 6 0 7 -7 21 -16 30 -15 17 -15
21 -1 51 14 29 14 33 0 43 -9 7 -13 17 -9 23 3 6 2 13 -3 16 -5 4 -11 -1 -13
-9 -3 -13 -7 -13 -28 -2 -35 18 -64 18 -49 0 6 -7 14 -11 18 -9 3 2 11 -2 18
-9 10 -11 10 -15 0 -18 -7 -3 -4 -6 6 -6 9 -1 17 -6 17 -11 0 -14 -46 -60 -59
-60 -6 0 -13 -10 -16 -23 -7 -28 -60 -63 -70 -47 -4 6 7 25 24 43 75 78 82 90
65 107 -12 11 -18 12 -21 3 -4 -12 -47 -69 -83 -111 -11 -13 -20 -30 -20 -38
0 -8 -4 -14 -10 -14 -5 0 -10 -6 -10 -14 0 -8 -9 -18 -20 -21 -11 -4 -18 -10
-15 -15 3 -4 -2 -13 -10 -20 -12 -10 -16 -9 -21 3 -3 9 -1 24 4 34 5 10 7 23
5 29 -2 7 13 29 33 50 82 85 93 100 88 121 -5 16 -13 20 -42 18 -20 -1 -38 -4
-39 -5 -7 -6 -30 -5 -51 2 -21 7 -23 6 -16 -14 6 -20 5 -21 -8 -10 -20 16 -48
-12 -30 -30 9 -9 17 -7 34 8 15 13 36 19 60 18 25 -1 35 3 31 10 -3 6 -3 8 2
4 4 -4 14 -3 22 3 7 6 13 8 13 3 0 -5 -20 -22 -45 -39 -24 -16 -45 -33 -45
-37 0 -4 -6 -5 -13 -2 -8 3 -26 0 -41 -6 l-28 -10 24 -19 c21 -18 21 -21 8
-35 -14 -14 -18 -14 -38 0 -12 8 -22 21 -22 27 -1 7 -8 26 -16 42 -8 17 -12
22 -10 13 5 -18 -28 -44 -51 -40 -6 1 -14 -2 -18 -8 -3 -5 -13 -10 -22 -10
-22 0 -63 -50 -63 -77 0 -14 -6 -23 -15 -23 -9 0 -21 -11 -27 -25 -6 -14 -16
-25 -22 -25 -6 0 -4 -5 4 -11 11 -8 12 -12 2 -16 -13 -5 -7 -23 9 -23 6 0 7 5
4 10 -7 11 -6 11 76 13 45 2 53 0 40 -10 -13 -9 -11 -10 12 -6 15 3 25 9 22
13 -2 4 7 12 22 19 21 10 25 9 20 -3 -4 -9 -2 -18 3 -21 13 -8 18 18 8 39 -7
13 -6 21 2 26 7 4 -8 10 -35 14 -29 5 -51 3 -59 -3 -8 -6 -21 -9 -30 -5 -22 8
-3 42 30 54 14 6 23 14 20 18 -7 11 4 24 37 45 34 22 55 13 32 -13 -22 -24
-14 -36 30 -44 19 -4 35 -11 35 -17 0 -6 -5 -7 -12 -3 -7 4 -8 3 -4 -4 4 -6
14 -8 22 -5 14 5 15 3 5 -16 -10 -18 -15 -19 -32 -10 -19 10 -20 9 -9 -10 14
-27 24 -26 42 0 l14 21 1 -22 c1 -12 -5 -33 -13 -45 -13 -20 -13 -24 1 -39 31
-31 -5 -42 -43 -13 -9 7 -9 13 -1 23 18 22 -6 16 -26 -6 -16 -18 -29 -20 -89
-18 -50 2 -70 7 -69 16 2 6 -3 12 -10 12 -8 0 -13 -11 -12 -27 0 -21 8 -32 32
-44 l31 -16 -41 -26 c-30 -20 -44 -24 -54 -16 -9 8 -13 8 -13 0 0 -14 -27 -15
-35 -1 -4 6 1 7 11 3 14 -5 16 -3 11 11 -4 10 -7 27 -7 39 -1 20 -2 20 -11 4
-6 -9 -14 -15 -19 -12 -11 7 -18 -15 -15 -48 2 -20 -1 -27 -13 -27 -13 0 -11
-5 8 -21 14 -11 19 -17 11 -13 -11 5 -13 3 -8 -10 4 -10 7 -22 7 -28 0 -6 7
-7 16 -4 9 3 14 3 12 -1 -24 -50 -33 -62 -51 -67 -13 -3 -18 -10 -14 -21 4 -8
-1 -23 -11 -33 -15 -15 -16 -21 -5 -42 7 -14 18 -24 24 -22 6 1 8 -2 4 -7 -3
-6 2 -27 11 -48 9 -21 16 -44 15 -50 -1 -7 6 -13 15 -13 16 0 16 -1 2 -12 -17
-13 -15 -68 2 -68 5 0 14 -16 20 -35 7 -20 18 -35 27 -35 13 0 13 -3 3 -15
-10 -12 -9 -15 4 -16 9 -1 21 -2 28 -3 6 0 13 -8 15 -16 4 -12 3 -12 -5 -1 -6
9 -12 10 -16 2 -4 -6 7 -17 26 -26 18 -9 49 -24 68 -35 19 -10 46 -19 60 -18
16 0 19 2 8 5 -22 5 -22 10 -4 29 12 11 20 12 40 2 27 -11 36 -30 14 -26 -7 2
-12 -5 -12 -14 1 -10 -2 -18 -8 -18 -5 0 -6 -5 -3 -11 4 -6 -2 -13 -14 -16
-11 -3 -19 -9 -16 -13 3 -5 -2 -16 -11 -25 -12 -12 -14 -19 -5 -26 6 -5 9 -6
7 -3 -3 3 6 17 19 31 15 17 27 23 36 17 8 -5 25 -9 39 -9 19 0 24 -5 22 -19
-2 -10 1 -15 6 -12 6 3 12 1 14 -5 2 -5 11 -7 20 -4 11 4 15 16 13 38 -3 39 2
50 18 37 7 -6 20 -16 29 -23 19 -13 36 -67 21 -67 -5 0 -19 9 -31 20 -26 24
-29 25 -29 4 0 -19 62 -51 116 -60 33 -5 41 -4 41 9 0 9 5 19 12 23 7 4 8 3 4
-4 -4 -7 -1 -12 7 -12 8 0 20 -7 27 -15 14 -17 60 -21 60 -5 0 6 -5 10 -12 10
-6 0 -8 3 -4 7 4 5 14 -1 22 -11 8 -11 14 -16 14 -10 0 5 5 2 10 -6 6 -9 10
-10 10 -3 0 6 -4 14 -9 17 -10 7 -2 56 10 56 5 0 9 -11 9 -24 0 -13 3 -32 6
-40 5 -14 9 -14 22 -4 11 9 14 9 9 1 -10 -15 29 -13 63 4 28 14 38 10 21 -11
-11 -13 -8 -13 18 -3 16 6 28 14 25 18 -2 4 3 9 11 13 8 3 15 14 15 25 0 16 6
19 30 16 23 -3 33 1 41 18 23 43 49 59 49 31 0 -8 4 -13 9 -9 5 3 12 1 16 -5
3 -5 14 -10 23 -10 12 0 10 4 -7 13 -33 17 -29 29 16 43 27 9 32 12 16 13 -33
1 -28 21 5 21 34 0 52 16 52 46 0 26 29 41 43 22 6 -9 7 -6 4 9 -3 15 -1 20 9
16 9 -3 15 3 16 18 0 13 2 38 3 54 2 17 -2 36 -7 42 -16 20 -1 62 22 60 14 -1
16 -4 9 -14 -13 -15 -2 -53 14 -53 18 0 39 58 23 63 -8 3 -7 11 2 27 14 22 13
23 -20 17 -28 -6 -31 -5 -16 6 15 12 15 14 -4 26 -11 7 -17 8 -13 2 4 -7 -4
-11 -19 -11 -14 0 -26 5 -26 10 0 6 3 10 8 10 4 0 7 18 7 40 0 44 4 43 -92 42
-31 -1 -53 4 -53 10 0 6 -7 5 -17 -3 -11 -10 -14 -10 -9 -1 4 7 2 12 -7 12
-17 0 -27 21 -27 55 0 16 7 24 25 27 19 4 25 1 25 -12 0 -9 11 -22 25 -28 33
-15 36 -15 29 2 -6 14 71 -20 104 -46 9 -8 13 -8 9 -2 -4 7 0 28 8 48 21 51
19 67 -16 105 -16 18 -28 36 -25 39 6 5 -24 31 -36 32 -5 0 -8 -9 -8 -19 0
-11 -7 -26 -15 -34 -8 -8 -11 -18 -7 -21 3 -4 -4 -9 -17 -13 -13 -3 -20 -11
-17 -19 3 -7 1 -16 -4 -19 -6 -4 -10 0 -10 8 0 10 -7 13 -20 10 -25 -7 -25 5
0 37 11 14 20 30 20 36 0 6 7 17 15 24 9 7 14 19 11 27 -3 8 -2 12 3 9 4 -3
18 4 31 16 20 19 20 22 6 30 -9 5 -22 6 -29 1 -12 -8 -17 -9 -37 -12 -5 0 -10
-7 -10 -15 0 -19 -12 -26 -50 -31 -33 -4 -41 14 -15 35 21 17 -1 33 -27 19
-12 -6 -18 -6 -18 1 0 5 -7 10 -16 10 -9 0 -14 5 -12 11 2 6 7 10 12 9 5 -1
13 4 18 12 8 10 11 10 15 0 2 -6 8 -10 13 -7 5 3 20 1 34 -4 20 -8 24 -7 19 5
-4 10 0 12 11 8 8 -3 29 4 45 15 33 24 53 12 29 -17 -8 -9 -18 -24 -22 -32 -4
-8 -1 -7 8 4 8 10 21 16 28 13 7 -2 23 0 35 4 25 9 43 -12 43 -50 0 -12 9 -38
20 -58 10 -20 16 -41 13 -46 -4 -6 0 -8 10 -4 11 4 14 2 10 -9 -3 -8 -1 -20 5
-27 12 -14 6 -121 -9 -148 -7 -14 -6 -19 2 -19 7 0 6 -8 -4 -24 -11 -16 -13
-26 -5 -34 7 -7 25 4 58 39 l48 50 -24 55 c-13 30 -26 71 -29 90 -5 41 -13 56
-26 49 -5 -4 -9 -1 -9 4 0 6 4 11 9 11 5 0 12 7 15 16 4 11 2 15 -7 11 -8 -3
-13 6 -13 27 -1 17 -4 57 -9 88 l-7 56 28 -3 c16 -1 33 2 37 9 5 6 5 0 1 -14
-6 -22 -5 -23 9 -11 15 12 16 8 14 -38 -1 -28 0 -51 2 -51 2 0 10 8 18 18 10
11 12 12 8 2 -4 -8 1 -6 9 4 9 11 16 15 16 9 0 -6 9 -13 21 -16 15 -4 19 -2
15 8 -3 10 0 12 11 8 12 -5 14 -3 8 7 -6 10 -3 12 13 8 12 -4 22 -3 22 0 0 4
11 7 26 7 19 0 24 -4 20 -17 -2 -10 0 -18 5 -18 4 0 6 -7 3 -15 -9 -24 -24
-17 -24 10 0 14 -5 25 -11 25 -7 0 -9 -9 -5 -24 4 -15 0 -28 -10 -36 -12 -11
-12 -15 -2 -21 10 -7 10 -9 -2 -9 -12 0 -12 -2 -2 -9 11 -7 11 -10 0 -22 -11
-12 -13 -36 -9 -95 1 -7 17 -15 37 -19 26 -4 34 -9 26 -17 -8 -8 -15 -8 -27 2
-13 11 -15 8 -15 -23 0 -41 -12 -54 -30 -32 -11 13 -10 14 5 9 17 -7 17 -6 1
18 -12 18 -13 27 -5 30 7 2 5 9 -6 18 -17 14 -18 13 -13 -18 5 -35 -2 -41 -23
-16 -20 25 -19 39 7 59 23 17 35 63 14 50 -6 -4 -9 -9 -7 -13 6 -12 -52 -63
-58 -52 -9 14 4 31 18 24 7 -4 9 -4 5 1 -4 4 0 13 8 20 15 11 15 12 0 12 -9 0
-16 -4 -16 -8 0 -5 -7 -6 -15 -3 -30 12 -16 -41 21 -79 20 -20 31 -37 24 -37
-9 0 -7 -6 4 -19 10 -11 15 -24 12 -29 -3 -5 3 -12 14 -15 11 -3 20 -1 20 4 0
5 -4 9 -10 9 -5 0 -10 5 -10 12 0 8 6 7 16 -4 18 -18 10 -42 -12 -34 -9 3 -16
-4 -20 -22 -4 -15 -11 -30 -17 -33 -12 -8 11 -52 23 -44 5 3 13 -3 19 -12 9
-16 10 -14 11 10 0 15 4 27 10 27 5 0 6 7 3 17 -4 11 -3 14 5 9 7 -4 10 -17 6
-31 -3 -14 1 -34 12 -51 18 -27 18 -27 -1 -17 -18 10 -21 7 -30 -30 -6 -23 -8
-52 -3 -64 6 -17 1 -29 -18 -48 -31 -31 -36 -31 -24 -1 6 17 5 26 -3 30 -8 3
-6 8 6 16 20 13 23 57 3 57 -11 0 -12 -6 -5 -24 8 -22 2 -28 -23 -24 -5 0 -8
-4 -8 -10 0 -5 -4 -8 -8 -5 -5 3 -9 -1 -9 -9 0 -11 4 -12 14 -4 10 9 13 6 14
-12 1 -13 1 -30 0 -38 -2 -7 4 -11 11 -9 7 3 18 -2 25 -11 9 -11 12 -12 13 -3
0 7 5 10 12 6 7 -4 8 -3 4 5 -4 6 -12 9 -17 6 -5 -4 -9 -1 -9 5 0 6 7 13 15
16 8 4 15 12 15 20 0 19 7 18 33 -8 12 -13 18 -20 13 -16 -18 14 -27 8 -16
-11 17 -32 12 -44 -15 -37 -19 5 -23 3 -18 -9 3 -9 12 -14 19 -11 9 3 14 -2
14 -14 0 -11 -4 -20 -10 -20 -5 0 -10 5 -10 12 0 6 -3 9 -6 6 -3 -3 -7 -34
-10 -69 -4 -50 -2 -61 7 -52 9 9 15 9 25 -2 17 -16 18 -35 3 -35 -5 0 -7 5 -3
12 5 8 2 9 -10 5 -10 -4 -20 -7 -22 -7 -8 0 -4 -59 5 -64 5 -4 7 4 4 16 -5 22
-5 23 13 4 14 -13 16 -20 6 -23 -7 -3 -20 -12 -29 -21 -9 -9 -21 -17 -27 -18
-6 -1 -20 -5 -31 -9 -15 -5 -16 -4 -6 3 11 8 11 14 -3 33 -12 17 -16 19 -16 7
0 -9 -7 -18 -15 -22 -20 -7 -20 -46 1 -46 8 0 24 5 34 10 15 8 23 5 40 -12 24
-26 26 -38 4 -38 -11 0 -15 -6 -11 -19 3 -15 -1 -21 -16 -23 -12 -2 -23 -12
-25 -22 -4 -19 1 -19 53 -1 18 6 18 5 2 -5 -9 -6 -16 -14 -13 -18 2 -4 -14 -7
-35 -7 -24 -1 -39 4 -39 11 0 7 -9 16 -20 19 -11 3 -20 10 -20 15 0 4 9 10 20
13 25 6 27 42 3 51 -10 4 -14 4 -11 0 4 -3 0 -20 -9 -37 -15 -29 -14 -32 7
-49 29 -23 17 -41 -16 -23 -15 7 -41 11 -65 8 -21 -3 -45 -1 -52 5 -16 13 -60
-31 -45 -46 6 -6 1 -11 -11 -15 -12 -3 -21 -1 -21 5 0 5 -4 6 -10 3 -16 -10
-35 6 -19 16 12 8 12 10 1 18 -8 4 -13 12 -13 17 1 11 3 11 -77 1 -35 -4 -71
-12 -80 -17 -14 -9 -11 -10 13 -6 89 15 123 17 129 8 10 -16 -13 -25 -30 -11
-8 6 -17 9 -21 5 -3 -3 -1 -6 5 -6 7 0 12 -7 12 -17 0 -14 -3 -14 -22 3 -15
13 -18 14 -10 3 19 -24 -12 -33 -44 -13 -21 15 -24 15 -24 1 0 -9 -10 -18 -22
-20 -13 -2 127 -5 310 -5 182 0 332 4 332 9 0 5 -8 6 -17 3 -17 -5 -17 -5 0 9
9 8 17 19 17 26 0 6 -8 11 -17 11 -14 0 -15 2 -4 9 7 5 15 21 16 35 2 14 -1
24 -6 20 -5 -3 -7 -10 -4 -15 4 -5 -1 -9 -10 -9 -12 0 -15 5 -11 16 3 9 6 18
6 20 0 2 8 4 18 4 13 1 11 4 -8 16 l-25 15 25 -7 c21 -6 23 -5 13 8 -10 11
-10 17 -1 26 9 9 8 12 -5 12 -9 0 -17 5 -17 10 0 18 -29 11 -40 -10 -6 -11
-15 -18 -21 -15 -15 10 -10 23 11 30 11 4 18 10 15 15 -8 12 39 -1 47 -14 5
-7 8 -7 9 -1 0 6 2 19 4 30 2 11 -4 28 -13 38 -13 15 -14 18 -2 15 12 -2 15
10 15 60 0 39 -5 68 -13 74 -18 16 -27 1 -11 -19 12 -17 12 -17 -6 -1 -15 14
-16 21 -7 30 8 8 15 8 26 -1 13 -11 15 22 15 278 -1 215 -4 291 -12 291 -8 0
-9 3 -1 8 16 11 17 524 1 534 -9 6 -9 8 0 8 8 0 8 6 0 24 -7 13 -15 22 -20 19
-4 -3 -3 -11 4 -19 9 -11 8 -14 -3 -14 -7 0 -15 11 -16 25 -1 19 3 25 17 25
11 0 22 -5 24 -10 3 -6 4 -5 3 2 -2 8 -20 13 -51 13 -40 0 -49 -3 -56 -22 -5
-13 -5 -23 0 -23 5 0 11 9 14 20 6 24 37 27 37 4 0 -10 -6 -14 -15 -10 -8 3
-15 1 -15 -4 0 -5 8 -10 18 -12 13 -3 11 -7 -13 -21 -16 -10 -23 -17 -15 -16
32 3 44 -3 20 -10 -19 -6 -25 -13 -23 -34 1 -21 -3 -27 -18 -27 -10 0 -19 7
-19 15 0 8 -7 15 -16 15 -10 0 -14 7 -12 23 2 13 9 22 20 21 14 -1 15 2 5 17
-8 13 -13 15 -19 6 -6 -9 -8 -9 -8 2 0 7 -6 11 -13 8 -10 -4 -13 2 -9 19 5 26
-7 31 -26 12 -15 -15 -16 -31 0 -22 7 4 8 3 4 -4 -7 -12 -36 -5 -36 8 0 16 41
42 67 42 15 0 31 5 35 11 3 5 5 -1 5 -16 -2 -19 -5 -23 -15 -15 -9 8 -11 7 -6
-5 8 -22 31 -28 38 -10 3 8 4 19 0 24 -3 5 0 9 5 9 6 0 11 8 12 18 0 10 3 12
6 5 2 -7 16 -13 29 -13 24 0 29 12 25 65 -2 17 0 17 8 5 6 -8 8 -23 5 -32 -4
-13 -1 -16 11 -12 9 4 14 13 11 20 -3 8 -2 14 3 14 5 0 9 36 10 80 l1 80 -32
0 c-25 0 -29 3 -18 10 12 8 10 10 -10 10 -24 1 -24 1 -6 15 11 8 14 15 7 15
-7 0 -9 5 -5 13 4 6 3 9 -1 4 -5 -4 -16 0 -25 8 -11 10 -33 14 -66 13 -42 -3
-49 -6 -52 -25 -3 -23 -32 -33 -32 -12 0 5 5 7 10 4 6 -4 10 5 10 19 0 25 2
26 65 26 36 0 65 -4 65 -8 0 -4 9 -8 19 -8 11 0 17 5 13 11 -3 5 1 4 10 -2 8
-7 17 -12 19 -10 2 1 -2 -4 -10 -10 -12 -11 -12 -13 3 -19 9 -3 15 -12 14 -19
-2 -8 2 -15 7 -17 6 -2 11 22 13 55 l4 57 -131 0 c-72 0 -132 -3 -132 -7z
m191 -13 c0 -5 -4 -10 -9 -10 -6 0 -13 5 -16 10 -3 6 1 10 9 10 9 0 16 -4 16
-10z m-15 -60 c13 -6 15 -9 5 -9 -8 0 -22 4 -30 9 -18 12 -2 12 25 0z m-31
-52 c16 -18 16 -20 2 -15 -14 6 -16 3 -11 -14 5 -15 4 -19 -4 -15 -8 5 -8 0 1
-18 6 -14 15 -26 20 -26 11 0 -13 -25 -29 -31 -9 -3 -9 -9 -3 -19 9 -13 11
-13 20 0 8 13 11 13 22 1 10 -10 10 -12 1 -7 -7 4 -13 2 -13 -3 0 -6 -7 -11
-16 -11 -8 0 -13 -4 -10 -8 2 -4 1 -14 -5 -22 -7 -12 -9 -10 -9 6 0 12 -7 24
-15 28 -18 7 -16 26 5 43 12 9 9 10 -15 7 -17 -2 -21 -1 -11 2 15 5 16 8 5 16
-11 7 -9 9 6 5 17 -3 20 1 20 32 0 20 -4 40 -10 44 -6 5 0 7 13 4 23 -5 31 8
10 16 -7 3 -8 6 -3 6 6 1 19 -9 29 -21z m73 -50 c-3 -8 -6 -5 -6 6 -1 11 2 17
5 13 3 -3 4 -12 1 -19z m-231 -34 c-19 -19 -21 -11 -4 16 7 11 14 16 16 10 2
-5 -4 -17 -12 -26z m189 7 c-6 -5 -25 10 -25 20 0 5 6 4 14 -3 8 -7 12 -15 11
-17z m-125 -43 c0 -23 -3 -29 -9 -19 -8 12 -4 51 5 51 2 0 4 -15 4 -32z m-206
-13 c-7 -16 -24 -21 -24 -6 0 8 7 13 27 20 1 1 0 -6 -3 -14z m55 -5 c10 0 20
-3 24 -6 9 -9 -4 -35 -14 -28 -5 3 -6 -2 -3 -10 3 -9 11 -13 17 -9 5 3 7 2 4
-3 -6 -11 -47 -11 -64 -1 -6 4 -13 2 -15 -5 -3 -7 -7 -5 -11 6 -4 10 -3 15 3
11 6 -3 10 3 10 14 0 12 5 21 10 21 6 0 10 8 11 18 0 10 3 12 6 5 2 -7 13 -13
22 -13z m-89 -16 c0 -8 -4 -13 -9 -10 -5 4 -11 1 -13 -6 -3 -7 -7 -5 -11 6 -4
9 -3 15 2 11 5 -3 12 -1 16 5 9 15 15 12 15 -6z m360 -24 c0 -5 -5 -10 -11
-10 -5 0 -7 5 -4 10 3 6 8 10 11 10 2 0 4 -4 4 -10z m-120 -25 c0 -8 -4 -15
-10 -15 -5 0 -7 7 -4 15 4 8 8 15 10 15 2 0 4 -7 4 -15z m-100 -15 c-6 -11
-12 -20 -14 -20 -2 0 -2 9 1 20 3 11 9 20 15 20 5 0 4 -9 -2 -20z m75 -90 c3
-11 11 -20 16 -20 5 0 9 -7 9 -15 0 -12 -5 -10 -20 5 -12 12 -25 18 -30 15 -6
-4 -10 -1 -10 5 0 6 -4 8 -10 5 -5 -3 -10 -2 -10 4 0 10 16 19 37 20 6 1 15
-8 18 -19z m185 -34 c0 -3 -4 -8 -10 -11 -5 -3 -10 -1 -10 4 0 6 5 11 10 11 6
0 10 -2 10 -4z m-705 -16 c3 -6 -1 -7 -9 -4 -18 7 -21 14 -7 14 6 0 13 -4 16
-10z m581 -65 c-3 -9 -2 -13 3 -10 5 3 12 -3 15 -13 4 -10 20 -33 38 -50 17
-18 28 -36 24 -39 -4 -4 -11 -1 -15 6 -10 16 -31 6 -31 -14 0 -20 21 -30 31
-14 7 11 9 11 9 -3 0 -9 3 -24 6 -32 8 -22 -25 -9 -47 18 -15 19 -16 19 -16 0
0 -10 4 -24 8 -30 6 -8 -1 -11 -23 -10 -18 1 -33 7 -36 16 -5 13 -3 13 14 0
16 -12 15 -10 -2 10 -49 57 -72 80 -78 80 -4 0 0 -8 10 -17 17 -17 16 -18 -17
-23 -40 -7 -56 -3 -63 15 -3 10 0 12 11 8 12 -5 14 -3 8 7 -6 10 -4 12 8 7 15
-6 32 17 23 32 -3 4 5 13 17 21 20 12 21 12 8 -4 -12 -14 -12 -16 3 -10 9 3
16 15 16 25 0 11 6 22 14 25 8 3 17 16 20 30 6 24 7 24 28 5 12 -12 18 -26 14
-36z m131 23 c-3 -7 -5 -2 -5 12 0 14 2 19 5 13 2 -7 2 -19 0 -25z m-593 -55
c-5 -67 -14 -99 -14 -52 0 21 -2 20 -25 -14 -14 -20 -23 -42 -19 -49 4 -6 8
-22 10 -35 2 -19 0 -22 -11 -13 -10 8 -14 7 -18 -2 -4 -9 -6 -9 -6 -1 -1 6 4
15 9 18 6 3 10 11 10 16 0 6 -4 7 -10 4 -5 -3 -10 1 -10 9 0 9 -4 16 -10 16
-5 0 -10 5 -10 11 0 6 8 8 18 5 15 -5 18 0 18 29 0 21 9 46 22 62 13 16 25 36
29 46 13 39 22 13 17 -50z m566 42 c0 -8 -2 -15 -4 -15 -2 0 -6 7 -10 15 -3 8
-1 15 4 15 6 0 10 -7 10 -15z m-20 -25 c0 -13 -5 -18 -14 -14 -8 3 -12 12 -9
20 8 21 23 17 23 -6z m-791 -34 c-3 -3 -11 5 -18 17 -13 21 -12 21 5 5 10 -10
16 -20 13 -22z m309 -32 c4 2 7 -9 8 -25 1 -18 -4 -29 -12 -29 -18 0 -28 43
-18 78 l8 27 4 -28 c2 -15 6 -25 10 -23z m488 21 c17 -16 14 -18 -10 -9 -9 3
-16 10 -16 15 0 13 9 11 26 -6z m-836 -36 c0 -5 -10 -9 -22 -9 -13 0 -42 -9
-65 -19 -23 -11 -44 -17 -47 -13 -3 3 -6 0 -6 -7 0 -7 -4 -10 -9 -7 -5 4 -11
1 -13 -6 -4 -12 -65 -16 -98 -7 -29 8 -41 39 -14 39 8 0 12 -5 8 -11 -4 -7 0
-9 12 -5 11 3 37 8 58 11 21 2 46 11 55 19 9 8 26 19 39 23 27 10 102 4 102
-8z m885 11 c3 -5 1 -10 -4 -10 -6 0 -11 5 -11 10 0 6 2 10 4 10 3 0 8 -4 11
-10z m23 -65 c-3 -3 -13 7 -23 22 l-17 28 23 -22 c12 -12 20 -25 17 -28z m-18
-15 c0 -5 -7 -7 -15 -4 -8 4 -15 8 -15 10 0 2 7 4 15 4 8 0 15 -4 15 -10z
m-606 -19 c3 -5 -3 -11 -13 -14 -14 -3 -18 -1 -14 9 6 16 19 18 27 5z m-139
-45 c-10 -15 -12 -27 -6 -30 5 -4 12 -2 16 4 3 5 14 10 23 10 14 0 14 -1 0
-12 -17 -14 -62 -104 -63 -125 0 -7 -4 -12 -10 -10 -13 3 -13 85 0 117 15 35
38 70 48 70 4 0 0 -11 -8 -24z m-454 4 c25 0 24 -22 -1 -38 -12 -7 -18 -17
-15 -22 3 -6 3 -10 -2 -10 -4 0 -17 -12 -27 -27 -11 -14 -14 -23 -7 -18 10 6
11 2 5 -16 -5 -13 -9 -41 -9 -61 0 -42 -16 -46 -25 -7 -4 17 -8 20 -14 11 -6
-10 -11 -10 -21 -2 -10 8 -15 8 -20 -1 -6 -8 -10 -7 -16 2 -7 11 -9 10 -9 -3
0 -9 -6 -18 -12 -21 -8 -2 3 -20 30 -47 24 -25 39 -47 34 -52 -10 -10 -42 0
-42 14 0 5 -4 7 -9 4 -12 -8 -63 53 -55 66 4 6 0 14 -7 19 -13 8 -20 79 -8 79
4 0 13 -10 21 -22 14 -21 15 -21 59 23 53 53 99 113 99 129 0 7 7 9 16 6 9 -3
24 -6 35 -6z m-154 -27 c3 -7 -4 -9 -16 -6 -12 3 -18 9 -15 15 7 11 26 6 31
-9z m273 -13 c8 -9 25 -20 37 -24 21 -7 73 -66 58 -66 -3 0 -21 10 -38 23 -37
27 -105 57 -75 34 10 -8 16 -16 13 -19 -3 -2 12 -13 33 -24 20 -11 41 -30 47
-42 5 -12 15 -22 21 -22 7 0 22 -9 35 -21 17 -14 19 -19 7 -15 -10 3 -20 2
-22 -3 -3 -4 -26 -7 -50 -6 -29 1 -50 -3 -57 -11 -6 -8 -17 -14 -25 -14 -7 0
-20 -7 -29 -16 -8 -9 -22 -14 -29 -11 -17 7 -49 -26 -39 -38 5 -4 3 -5 -4 -2
-12 7 -39 -55 -30 -70 2 -5 1 -17 -4 -28 -7 -18 -8 -17 -8 7 -1 17 -9 32 -23
39 l-22 12 22 8 c12 5 22 13 22 19 0 6 5 8 10 5 13 -8 13 11 0 36 -6 10 -18
19 -26 19 -9 0 -14 6 -11 13 2 6 11 11 21 9 12 -2 16 5 16 27 0 31 28 101 41
101 3 0 18 18 33 40 14 22 22 40 17 40 -5 0 -12 7 -15 16 -5 13 -1 14 27 8 17
-3 39 -14 47 -24z m1060 0 c0 -5 -5 -10 -11 -10 -5 0 -7 5 -4 10 3 6 8 10 11
10 2 0 4 -4 4 -10z m-596 -44 c7 3 19 -2 26 -11 8 -10 9 -15 1 -15 -6 0 -11 5
-11 10 0 6 -6 10 -12 10 -7 -1 -3 -9 10 -20 13 -11 30 -16 40 -13 13 5 14 3 5
-7 -6 -7 -9 -19 -5 -28 4 -11 1 -14 -11 -9 -12 4 -15 1 -12 -14 2 -10 -1 -19
-7 -19 -6 0 -4 -8 6 -18 16 -18 13 -20 -52 -50 -38 -18 -74 -32 -81 -32 -8 0
-11 -7 -7 -17 5 -16 5 -16 -6 -2 -11 13 -18 14 -43 3 -24 -10 -33 -9 -53 4
-14 9 -22 23 -20 35 3 20 14 24 69 29 31 2 58 34 31 35 -10 0 -22 -4 -28 -9
-8 -5 -14 -3 -18 7 -3 9 -2 13 4 10 6 -3 10 -1 10 4 0 6 7 11 16 11 9 0 13 5
9 13 -4 6 3 1 14 -13 11 -14 21 -28 21 -32 0 -5 12 -8 26 -8 23 0 24 1 10 16
-20 20 -20 28 -1 20 8 -3 15 -1 15 4 0 6 -7 10 -15 10 -16 0 -20 27 -7 47 5 8
15 4 35 -12 25 -22 25 -25 9 -34 -9 -6 -12 -11 -6 -11 6 0 22 9 35 21 19 16
21 22 9 29 -8 5 -18 6 -24 3 -5 -3 -6 -1 -3 4 4 6 -2 18 -13 28 -11 10 -20 29
-20 43 l0 25 20 -26 c12 -14 27 -24 34 -21z m137 -9 c-10 -9 -11 -8 -5 6 3 10
9 15 12 12 3 -3 0 -11 -7 -18z m-43 -95 l2 -37 -15 29 c-13 24 -13 31 -3 38 7
4 13 8 13 8 0 0 1 -17 3 -38z m-979 9 c9 -6 10 -10 2 -16 -8 -4 -9 -11 -2 -18
13 -17 24 -101 16 -126 -3 -12 -15 -26 -25 -31 -15 -8 -19 -7 -18 7 1 10 -2
46 -6 79 -5 42 -4 64 4 69 6 4 8 15 5 26 -7 20 2 24 24 10z m1466 -19 c-3 -3
-11 0 -18 7 -9 10 -8 11 6 5 10 -3 15 -9 12 -12z m-1255 -22 c0 -5 -4 -10 -10
-10 -5 0 -10 5 -10 10 0 6 5 10 10 10 6 0 10 -4 10 -10z m412 -17 c10 -9 18
-26 17 -37 0 -12 -3 -16 -5 -10 -3 7 -14 10 -24 7 -22 -6 -36 17 -26 42 7 19
15 19 38 -2z m-120 -15 c-18 -18 -15 -41 5 -34 20 8 36 -14 21 -31 -6 -7 -19
-13 -30 -13 -10 0 -33 -7 -50 -16 -17 -9 -40 -13 -54 -10 -13 4 -33 1 -43 -6
-11 -7 -24 -9 -28 -4 -12 12 26 35 66 41 55 9 86 28 85 53 -1 12 2 19 7 17 4
-3 10 -1 14 5 3 5 9 10 13 10 3 0 1 -5 -6 -12z m69 -5 c6 -59 8 -56 -14 -35
-11 11 -16 25 -13 31 8 12 26 15 27 4z m332 -16 c3 -7 -4 -19 -15 -26 -16 -10
-19 -10 -13 1 3 7 0 5 -8 -4 -8 -10 -19 -18 -26 -18 -14 0 -15 -17 -1 -25 17
-10 11 -25 -10 -25 -27 0 -73 -22 -88 -42 -14 -19 -42 -24 -42 -8 0 6 4 10 10
10 5 0 20 16 33 35 13 19 26 33 29 30 3 -3 22 11 42 30 21 19 46 35 57 35 10
0 19 5 19 10 0 14 7 12 13 -3z m-269 -77 c5 0 6 7 2 15 -3 8 -1 15 4 15 18 0
40 -33 40 -61 0 -16 9 -38 21 -50 12 -12 22 -26 23 -33 1 -6 8 -22 15 -35 11
-19 15 -21 23 -10 8 11 9 10 4 -4 -3 -10 1 -32 10 -50 12 -21 13 -32 5 -35
-19 -6 -12 -29 12 -37 l22 -8 -22 -4 c-15 -3 -20 -9 -16 -21 3 -9 -5 -2 -18
15 -27 37 -49 49 -59 33 -5 -7 -11 -6 -20 5 -7 8 -10 18 -6 22 3 3 6 1 6 -5 0
-7 5 -12 10 -12 16 0 11 14 -10 27 -14 9 -21 10 -26 1 -5 -7 -3 -8 6 -3 9 6
11 4 5 -4 -11 -18 -28 2 -31 36 -2 15 -11 33 -20 40 -28 21 8 27 45 8 17 -8
31 -11 31 -6 0 5 -8 12 -18 16 -26 8 -43 46 -30 69 6 10 6 21 2 25 -5 3 -9 12
-9 20 0 8 -6 16 -13 19 -8 2 -10 -2 -5 -14 4 -11 3 -15 -4 -11 -12 8 -30 -53
-37 -128 -8 -76 -14 -114 -21 -125 -10 -16 -25 -11 -26 8 0 14 -2 14 -7 2 -4
-8 -14 -16 -23 -16 -14 -1 -14 3 3 37 20 42 24 84 8 94 -5 3 -10 11 -10 18 0
6 7 2 15 -9 13 -18 14 -16 13 26 -1 25 3 54 9 66 9 16 9 24 0 34 -9 10 -9 11
1 6 19 -11 65 22 57 42 -5 14 -4 14 13 -1 10 -9 22 -17 26 -17z m246 20 c0 -5
-2 -10 -4 -10 -3 0 -8 5 -11 10 -3 6 -1 10 4 10 6 0 11 -4 11 -10z m98 -16 c1
-15 7 -33 13 -40 6 -7 21 -42 33 -78 21 -60 22 -64 5 -55 -10 5 -23 18 -29 28
-5 11 -16 25 -23 33 -15 15 -47 92 -47 113 0 7 10 16 23 18 12 2 22 5 22 6 0
0 2 -11 3 -25z m-834 -35 c-3 -5 -12 -9 -20 -9 -8 0 -13 -4 -10 -8 3 -5 -8 -8
-24 -7 -16 1 -27 -2 -24 -6 2 -4 -4 -10 -15 -14 -15 -5 -18 -11 -12 -38 9 -45
7 -120 -5 -124 -16 -4 -46 47 -51 88 -4 24 -11 39 -19 39 -12 0 9 23 60 67 8
6 16 9 19 7 3 -3 17 1 32 9 28 14 79 12 69 -4z m101 -30 c0 -13 4 -27 9 -30 4
-4 4 -9 0 -12 -5 -3 -22 5 -38 18 -23 19 -27 28 -22 50 6 25 8 26 29 12 12 -8
22 -25 22 -38z m1185 41 c0 -5 -2 -10 -4 -10 -3 0 -8 5 -11 10 -3 6 -1 10 4
10 6 0 11 -4 11 -10z m-918 -32 c-8 -8 -9 -4 -5 13 4 13 8 18 11 10 2 -7 -1
-18 -6 -23z m412 -75 c-1 -60 -3 -110 -4 -113 -1 -3 -2 -13 -1 -22 1 -10 -3
-18 -8 -18 -6 0 -11 8 -12 18 0 14 -2 14 -9 -3 -10 -26 -15 -13 -28 85 -6 50
-6 78 1 85 7 7 8 3 3 -10 -12 -34 10 -3 24 35 11 28 26 48 36 50 1 0 0 -48 -2
-107z m-435 60 c0 -21 -3 -31 -6 -23 -3 8 -11 18 -17 22 -8 5 -7 8 2 8 6 0 12
7 12 15 0 8 2 15 5 15 3 0 5 -17 4 -37z m394 1 c-4 -12 -8 -13 -14 -3 -9 15
-2 32 11 24 5 -3 6 -13 3 -21z m-503 -54 c0 -6 7 -10 15 -10 9 0 18 -7 22 -16
4 -10 8 -12 13 -5 7 13 60 -85 60 -112 0 -23 -23 -22 -45 3 -10 11 -14 20 -9
20 5 0 2 5 -6 10 -8 5 -15 15 -15 22 0 7 -9 12 -19 10 -14 -3 -16 1 -11 17 4
15 2 21 -9 21 -18 0 -12 -24 13 -54 9 -11 11 -17 5 -13 -6 3 -11 0 -11 -8 0
-8 5 -13 11 -12 6 1 11 -5 11 -13 0 -8 -10 -16 -21 -18 -16 -2 -26 7 -42 39
-12 23 -19 46 -16 51 3 4 0 8 -6 8 -6 0 -15 11 -21 24 -9 19 -7 29 6 50 16 24
18 25 46 10 16 -8 29 -19 29 -24z m85 30 c3 -5 1 -10 -4 -10 -6 0 -11 5 -11
10 0 6 2 10 4 10 3 0 8 -4 11 -10z m353 -3 c7 -8 8 -18 1 -27 -8 -12 -9 -11
-7 5 2 12 -2 19 -9 18 -7 -2 -13 2 -13 7 0 14 16 12 28 -3z m-608 -27 c-8 -14
-6 -21 6 -28 9 -5 17 -24 19 -43 1 -19 6 -34 11 -35 5 0 24 -9 41 -20 40 -23
44 -54 8 -54 -13 0 -28 8 -34 18 -9 15 -12 13 -22 -16 -8 -25 -14 -30 -20 -20
-6 9 -9 7 -9 -10 0 -13 4 -20 10 -17 6 3 10 1 10 -4 0 -15 -17 -14 -26 1 -4 7
-9 24 -10 38 -6 53 -15 70 -46 86 -38 20 -67 53 -68 77 0 21 28 19 50 -4 32
-33 46 -29 59 17 7 24 17 41 22 38 5 -3 5 -13 -1 -24z m871 -87 c-42 -58 -77
-92 -105 -103 -41 -15 -55 2 -25 32 56 54 115 98 132 98 17 0 17 -2 -2 -27z
m424 7 c3 -6 -1 -7 -9 -4 -18 7 -21 14 -7 14 6 0 13 -4 16 -10z m-4 -27 c13
-16 12 -17 -3 -4 -17 13 -22 21 -14 21 2 0 10 -8 17 -17z m-907 -37 c-10 -8
-21 -12 -24 -10 -5 6 21 24 34 24 6 0 1 -6 -10 -14z m920 2 c-3 -4 -9 -8 -15
-8 -5 0 -9 4 -9 8 0 5 7 9 15 9 8 0 12 -4 9 -9z m-879 -18 c-3 -5 -1 -10 6
-10 7 0 10 -3 6 -6 -9 -9 -28 6 -22 17 4 5 8 9 11 9 3 0 2 -4 -1 -10z m-518
-43 c4 -8 17 -19 28 -25 18 -10 17 -11 -11 -12 -31 0 -79 31 -67 44 11 11 42
7 50 -7z m443 -7 c6 0 8 5 4 11 -4 8 -1 8 13 1 11 -6 25 -7 33 -2 8 5 17 7 21
4 4 -2 27 -7 51 -10 53 -6 68 -11 68 -21 0 -5 -21 -6 -46 -4 -26 2 -44 -1 -41
-6 3 -5 -2 -9 -11 -10 -9 -1 -36 -4 -59 -7 -32 -4 -46 -2 -59 12 -10 9 -19 16
-21 14 -2 -2 -9 -2 -16 1 -9 3 -9 8 2 20 10 12 18 14 31 7 10 -6 24 -10 30
-10z m478 -12 c-2 -28 -7 -33 -28 -34 -14 0 -31 -3 -38 -8 -26 -16 -11 23 19
48 40 34 51 33 47 -6z m-628 2 c0 -5 -2 -10 -4 -10 -3 0 -8 5 -11 10 -3 6 -1
10 4 10 6 0 11 -4 11 -10z m-133 -43 c1 -16 -2 -25 -8 -21 -6 3 -8 12 -5 20 3
8 -1 14 -9 14 -8 0 -15 5 -15 11 0 25 35 2 37 -24z m553 -14 c0 -7 -5 -13 -10
-13 -6 0 -14 -10 -18 -21 -12 -30 -65 -44 -155 -41 -100 4 -97 18 9 47 43 11
87 25 96 30 25 15 78 13 78 -2z m107 -5 c23 -18 -7 -37 -39 -26 -30 11 -35 22
-16 34 7 5 9 2 4 -7 -4 -8 -1 -6 6 3 12 16 19 15 45 -4z m530 -40 c-3 -7 -5
-2 -5 12 0 14 2 19 5 13 2 -7 2 -19 0 -25z m-969 -16 c12 4 95 -72 88 -80 -3
-3 -12 1 -21 8 -8 7 -15 9 -15 6 0 -4 -6 -1 -13 6 -8 7 -34 26 -60 42 -25 16
-44 33 -41 38 3 4 16 1 28 -7 13 -9 28 -14 34 -13z m972 -6 c0 -3 -4 -8 -10
-11 -5 -3 -10 -1 -10 4 0 6 5 11 10 11 6 0 10 -2 10 -4z m-694 -91 c-33 -17
-46 -19 -46 -6 0 10 22 18 55 20 15 1 13 -3 -9 -14z m584 -96 c0 -5 -4 -9 -10
-9 -5 0 -10 7 -10 16 0 8 5 12 10 9 6 -3 10 -10 10 -16z m115 -69 c-3 -5 -11
-10 -16 -10 -6 0 -7 5 -4 10 3 6 11 10 16 10 6 0 7 -4 4 -10z m-222 -115 c-9
-15 -11 -15 -23 0 -11 13 -10 15 4 9 10 -4 16 -1 16 7 0 7 3 10 6 6 3 -3 2
-13 -3 -22z m-83 5 c0 -5 -2 -10 -4 -10 -3 0 -8 5 -11 10 -3 6 -1 10 4 10 6 0
11 -4 11 -10z m40 -6 c0 -17 -22 -14 -28 4 -2 7 3 12 12 12 9 0 16 -7 16 -16z
m160 -14 c0 -5 -4 -10 -9 -10 -6 0 -13 5 -16 10 -3 6 1 10 9 10 9 0 16 -4 16
-10z"/>
<path d="M1600 1679 c0 -5 5 -7 10 -4 6 3 10 8 10 11 0 2 -4 4 -10 4 -5 0 -10
-5 -10 -11z"/>
<path d="M1778 1462 c-3 -9 -2 -26 2 -37 6 -16 8 -14 12 13 5 35 -6 54 -14 24z"/>
<path d="M1790 1380 c-13 -8 -12 -10 3 -10 9 0 17 5 17 10 0 12 -1 12 -20 0z"/>
<path d="M1784 1342 c0 -10 7 -19 16 -19 9 -1 16 6 16 18 0 11 -7 19 -16 19
-9 0 -16 -8 -16 -18z"/>
<path d="M670 1101 c0 -5 5 -13 10 -16 6 -3 10 -2 10 4 0 5 -4 13 -10 16 -5 3
-10 2 -10 -4z"/>
<path d="M1220 980 c0 -5 5 -10 11 -10 5 0 7 5 4 10 -3 6 -8 10 -11 10 -2 0
-4 -4 -4 -10z"/>
<path d="M760 741 c0 -5 5 -13 10 -16 6 -3 10 -2 10 4 0 5 -4 13 -10 16 -5 3
-10 2 -10 -4z"/>
<path d="M886 687 c3 -10 9 -15 12 -12 3 3 0 11 -7 18 -10 9 -11 8 -5 -6z"/>
<path d="M670 599 c0 -5 5 -7 10 -4 6 3 10 8 10 11 0 2 -4 4 -10 4 -5 0 -10
-5 -10 -11z"/>
<path d="M608 1983 c7 -3 16 -2 19 1 4 3 -2 6 -13 5 -11 0 -14 -3 -6 -6z"/>
<path d="M590 1960 c8 -5 20 -10 25 -10 6 0 3 5 -5 10 -8 5 -19 10 -25 10 -5
0 -3 -5 5 -10z"/>
<path d="M1378 1953 c6 -2 10 -9 6 -14 -3 -5 2 -9 10 -9 9 0 16 -4 16 -10 0
-5 5 -10 10 -10 6 0 3 11 -7 25 -10 13 -25 24 -33 24 -10 0 -11 -2 -2 -6z"/>
<path d="M680 1940 c0 -5 5 -10 11 -10 5 0 7 5 4 10 -3 6 -8 10 -11 10 -2 0
-4 -4 -4 -10z"/>
<path d="M1470 1939 c0 -6 -7 -8 -16 -5 -10 4 -14 1 -11 -6 2 -7 13 -12 23
-11 10 1 22 -4 26 -10 10 -15 11 4 2 27 -7 18 -24 22 -24 5z"/>
<path d="M1500 1946 c0 -2 8 -10 18 -17 15 -13 16 -12 3 4 -13 16 -21 21 -21
13z"/>
<path d="M110 1936 c0 -2 8 -10 18 -17 15 -13 16 -12 3 4 -13 16 -21 21 -21
13z"/>
<path d="M820 1936 c0 -2 7 -9 15 -16 13 -11 14 -10 9 4 -5 14 -24 23 -24 12z"/>
<path d="M310 1916 c0 -2 7 -9 15 -16 9 -7 15 -8 15 -2 0 5 -7 12 -15 16 -8 3
-15 4 -15 2z"/>
<path d="M1340 1916 c0 -2 7 -6 15 -10 8 -3 15 -1 15 4 0 6 -7 10 -15 10 -8 0
-15 -2 -15 -4z"/>
<path d="M571 1893 c-1 -7 -9 -10 -18 -7 -16 5 -16 4 0 -6 21 -13 32 -8 24 12
-4 9 -6 9 -6 1z"/>
<path d="M600 1891 c0 -6 4 -13 10 -16 6 -3 7 1 4 9 -7 18 -14 21 -14 7z"/>
<path d="M1450 1890 c0 -6 7 -10 15 -10 8 0 15 2 15 4 0 2 -7 6 -15 10 -8 3
-15 1 -15 -4z"/>
<path d="M1635 1890 c-4 -6 3 -10 14 -10 25 0 27 6 6 13 -8 4 -17 2 -20 -3z"/>
<path d="M900 1880 c8 -5 20 -10 25 -10 6 0 3 5 -5 10 -8 5 -19 10 -25 10 -5
0 -3 -5 5 -10z"/>
<path d="M1495 1880 c3 -5 8 -10 11 -10 2 0 4 5 4 10 0 6 -5 10 -11 10 -5 0
-7 -4 -4 -10z"/>
<path d="M1030 1876 c0 -2 7 -9 15 -16 9 -7 15 -8 15 -2 0 5 -7 12 -15 16 -8
3 -15 4 -15 2z"/>
<path d="M1308 1870 c-1 -5 -15 -11 -30 -12 -31 -3 -36 -13 -12 -22 26 -10 64
-7 64 5 0 8 5 8 15 -1 8 -7 15 -9 15 -5 0 4 6 3 13 -3 10 -9 13 -4 15 21 1 23
-1 28 -7 18 -8 -12 -14 -13 -36 -3 -31 15 -32 15 -37 2z m16 -15 c-4 -8 -11
-15 -16 -15 -6 0 -5 6 2 15 7 8 14 15 16 15 2 0 1 -7 -2 -15z"/>
<path d="M1419 1843 c12 -18 26 -35 31 -38 18 -11 10 2 -21 36 l-31 34 21 -32z"/>
<path d="M1430 1866 c0 -2 8 -10 18 -17 15 -13 16 -12 3 4 -13 16 -21 21 -21
13z"/>
<path d="M1470 1861 c0 -5 7 -15 17 -22 15 -13 15 -12 4 9 -12 23 -21 28 -21
13z"/>
<path d="M94 1845 c8 -8 17 -15 20 -15 3 0 3 7 0 15 -4 8 -13 15 -21 15 -12 0
-12 -2 1 -15z"/>
<path d="M615 1840 c-2 -3 5 -6 15 -7 11 -1 22 2 24 5 3 4 -4 8 -15 8 -11 0
-22 -3 -24 -6z"/>
<path d="M350 1824 c0 -8 -4 -13 -8 -10 -4 2 -8 -4 -8 -15 0 -19 1 -19 13 -3
13 18 18 44 8 44 -3 0 -5 -7 -5 -16z"/>
<path d="M1640 1825 c0 -9 6 -12 15 -9 8 4 12 10 9 15 -8 14 -24 10 -24 -6z"/>
<path d="M1400 1821 c0 -5 7 -12 16 -15 14 -5 15 -4 4 9 -14 17 -20 19 -20 6z"/>
<path d="M1528 1813 c6 -2 18 -2 25 0 6 3 1 5 -13 5 -14 0 -19 -2 -12 -5z"/>
<path d="M367 1789 c-13 -7 -15 -15 -8 -28 6 -10 6 -23 0 -32 -14 -23 -10 -35
5 -13 8 10 12 29 9 41 -4 18 1 24 29 32 28 8 29 9 8 10 -14 0 -33 -4 -43 -10z"/>
<path d="M1015 1790 c-3 -5 -1 -10 4 -10 6 0 11 5 11 10 0 6 -2 10 -4 10 -3 0
-8 -4 -11 -10z"/>
<path d="M390 1770 c0 -5 5 -10 10 -10 6 0 10 5 10 10 0 6 -4 10 -10 10 -5 0
-10 -4 -10 -10z"/>
<path d="M1192 1734 c10 -10 20 -16 22 -13 3 3 -5 11 -17 18 -21 13 -21 12 -5
-5z"/>
<path d="M1325 1710 c3 -5 8 -10 11 -10 2 0 4 5 4 10 0 6 -5 10 -11 10 -5 0
-7 -4 -4 -10z"/>
<path d="M1346 1682 c-3 -5 1 -9 9 -9 8 0 12 4 9 9 -3 4 -7 8 -9 8 -2 0 -6 -4
-9 -8z"/>
<path d="M1201 1639 c-8 -14 -19 -19 -32 -16 -15 4 -17 2 -9 -13 15 -28 25
-31 69 -24 47 8 46 34 -1 34 -26 0 -29 2 -18 15 7 9 11 17 9 20 -3 2 -11 -5
-18 -16z"/>
<path d="M1446 1642 c-2 -4 -1 -14 5 -22 7 -12 9 -10 9 8 0 23 -5 28 -14 14z"/>
<path d="M1143 1595 c0 -8 7 -15 15 -15 12 0 12 3 2 15 -7 8 -13 15 -15 15 -1
0 -2 -7 -2 -15z"/>
<path d="M1543 1575 c-3 -9 -3 -18 -1 -21 3 -3 8 4 11 16 6 23 -1 27 -10 5z"/>
<path d="M1615 1549 c-4 -6 -4 -13 -1 -16 3 -4 6 -1 6 7 0 10 4 10 18 -1 15
-13 16 -12 3 4 -16 20 -18 20 -26 6z"/>
<path d="M1610 1510 c-8 -5 -11 -10 -6 -10 5 0 1 -9 -9 -20 -18 -19 -17 -20 2
-20 26 0 50 26 31 33 -10 4 -10 8 2 16 19 13 0 14 -20 1z"/>
<path d="M1551 1493 c21 -28 23 -29 16 -11 -3 9 -1 19 6 22 7 2 1 5 -12 5 -21
1 -22 -1 -10 -16z"/>
<path d="M1460 1460 c0 -5 7 -10 16 -10 8 0 12 5 9 10 -3 6 -10 10 -16 10 -5
0 -9 -4 -9 -10z"/>
<path d="M1145 1310 c-17 -8 -17 -9 7 -7 15 1 24 5 22 9 -3 4 -6 8 -7 7 -1 0
-11 -4 -22 -9z"/>
<path d="M1740 1247 c0 -15 4 -27 9 -27 6 0 8 10 6 21 -6 33 -15 36 -15 6z"/>
<path d="M1002 1228 c-16 -16 -15 -28 3 -28 8 0 14 6 13 13 -2 7 6 11 21 9 15
-2 21 0 17 7 -9 15 -39 14 -54 -1z"/>
<path d="M462 1204 c-1 -17 2 -22 13 -18 8 4 15 10 15 15 0 5 1 12 3 16 1 3
-5 7 -13 8 -10 2 -17 -6 -18 -21z"/>
<path d="M1867 1206 c-10 -10 -17 -12 -25 -4 -12 12 -35 -25 -37 -59 0 -17 5
-23 21 -23 12 0 25 7 28 16 3 8 2 13 -3 10 -5 -3 -11 6 -14 20 -3 19 -1 24 10
20 8 -3 17 -6 19 -6 2 0 4 -11 4 -24 0 -13 7 -26 15 -30 12 -4 13 -2 6 13 -12
22 -10 64 4 73 7 5 6 8 -2 8 -6 0 -18 -6 -26 -14z"/>
<path d="M25 1091 c1 -20 6 -43 9 -52 4 -10 3 -20 -3 -24 -19 -11 -13 -55 7
-54 10 0 12 3 5 6 -7 2 -13 14 -13 25 0 18 2 19 17 7 15 -13 16 -12 11 8 -4
13 -2 26 3 29 5 3 9 19 9 35 0 21 -4 28 -12 23 -7 -5 -9 -2 -5 8 3 10 -1 18
-13 21 -15 4 -17 -1 -15 -32z"/>
<path d="M145 1120 c-3 -5 1 -10 10 -10 9 0 13 5 10 10 -3 6 -8 10 -10 10 -2
0 -7 -4 -10 -10z"/>
<path d="M1753 1079 c-2 -23 3 -25 10 -4 4 8 3 16 -1 19 -4 3 -9 -4 -9 -15z"/>
<path d="M107 963 c3 -7 6 -13 8 -13 2 0 5 6 8 13 3 8 -1 14 -8 14 -7 0 -11
-6 -8 -14z"/>
<path d="M61 954 c0 -11 3 -14 6 -6 3 7 2 16 -1 19 -3 4 -6 -2 -5 -13z"/>
<path d="M20 933 c0 -10 4 -14 8 -8 4 6 11 13 16 18 5 4 2 7 -7 7 -10 0 -17
-8 -17 -17z"/>
<path d="M1446 935 c4 -8 10 -15 15 -15 4 0 6 7 3 15 -4 8 -10 15 -15 15 -4 0
-6 -7 -3 -15z"/>
<path d="M108 933 c7 -3 16 -2 19 1 4 3 -2 6 -13 5 -11 0 -14 -3 -6 -6z"/>
<path d="M1546 927 c3 -10 9 -15 12 -12 3 3 0 11 -7 18 -10 9 -11 8 -5 -6z"/>
<path d="M31 914 c-12 -14 -11 -16 4 -12 10 1 20 9 23 16 5 17 -10 15 -27 -4z"/>
<path d="M91 893 c-9 -15 -12 -15 -19 -5 -8 12 -13 12 -31 1 -19 -12 -21 -23
-20 -89 0 -63 2 -71 11 -47 9 26 11 27 25 10 13 -17 14 -17 8 3 -3 12 -2 32 3
45 7 18 4 27 -12 40 -12 10 -18 20 -15 24 4 3 14 -1 23 -10 9 -9 16 -12 16 -7
0 6 10 8 23 5 18 -4 19 -3 7 6 -11 8 -12 11 -2 11 7 0 11 4 8 9 -4 5 0 12 6
14 8 3 7 6 -4 6 -9 1 -22 -7 -27 -16z"/>
<path d="M164 902 c3 -5 0 -13 -6 -15 -9 -4 -10 -6 -1 -6 17 -1 25 16 12 25
-7 4 -9 3 -5 -4z"/>
<path d="M1827 896 c-4 -10 -1 -13 8 -9 8 3 12 9 9 14 -7 12 -11 11 -17 -5z"/>
<path d="M141 859 c11 -7 11 -9 1 -9 -7 0 -20 -7 -28 -15 -9 -8 -11 -15 -6
-15 5 0 13 -11 16 -25 4 -15 14 -25 24 -25 10 0 13 -3 6 -8 -7 -5 -6 -15 4
-32 l14 -25 -6 28 c-5 20 -3 27 9 27 17 0 22 65 5 75 -5 3 -7 11 -4 18 2 7 -6
13 -22 14 -19 1 -23 -1 -13 -8z m0 -42 c-10 -9 -11 -8 -5 6 3 10 9 15 12 12 3
-3 0 -11 -7 -18z"/>
<path d="M1824 859 c-3 -6 -1 -16 4 -21 8 -8 11 -5 9 11 -1 24 -3 25 -13 10z"/>
<path d="M1797 804 c-7 -8 14 -54 24 -54 4 0 11 5 14 10 4 6 1 9 -7 8 -7 -2
-12 4 -10 14 3 17 -11 32 -21 22z"/>
<path d="M63 725 c0 -8 4 -12 8 -9 4 2 10 0 14 -6 3 -5 10 -10 15 -10 6 0 2 9
-7 20 -21 24 -30 25 -30 5z"/>
<path d="M1729 690 c-4 -8 -2 -23 3 -32 6 -12 5 -18 -3 -18 -16 0 -5 -11 14
-14 8 -1 22 -8 31 -15 26 -22 18 0 -8 23 -13 11 -26 32 -28 46 -2 17 -5 20 -9
10z"/>
<path d="M1831 674 c0 -11 3 -14 6 -6 3 7 2 16 -1 19 -3 4 -6 -2 -5 -13z"/>
<path d="M246 668 c4 -6 0 -17 -10 -23 -14 -11 -13 -12 10 -12 18 0 22 2 13 8
-10 6 -11 9 -1 9 6 0 12 7 12 15 0 8 -7 15 -16 15 -9 0 -12 -5 -8 -12z"/>
<path d="M21 654 c0 -11 3 -14 6 -6 3 7 2 16 -1 19 -3 4 -6 -2 -5 -13z"/>
<path d="M60 655 c-9 -10 -9 -15 -1 -15 13 0 9 -36 -7 -52 -9 -9 -12 -8 -16 3
-2 8 -7 21 -9 29 -3 8 -6 -4 -6 -27 -1 -33 2 -41 13 -37 9 3 17 -3 21 -15 3
-12 12 -21 20 -21 7 0 15 -7 19 -15 4 -11 -1 -15 -17 -15 -18 0 -19 2 -7 10
13 8 12 10 -2 10 -23 0 -23 -26 -1 -34 15 -6 15 -8 3 -16 -13 -8 -13 -10 -1
-10 8 0 11 -3 8 -7 -4 -3 -1 -13 6 -21 10 -13 9 -14 -2 -7 -11 6 -13 3 -9 -13
4 -12 2 -22 -3 -22 -5 0 -10 10 -10 23 -1 16 -2 18 -6 5 -2 -10 -9 -18 -14
-18 -6 0 -8 4 -5 8 2 4 1 14 -5 22 -5 10 -9 -65 -9 -199 0 -177 2 -212 14
-208 7 3 18 1 24 -5 8 -8 15 -8 26 1 17 14 116 18 136 6 9 -5 11 -4 6 3 -11
17 9 15 24 -3 16 -20 166 -22 173 -2 4 8 6 8 6 0 1 -17 641 -19 641 -1 0 9 3
9 12 0 14 -14 88 -16 88 -2 0 6 -17 11 -37 11 -26 1 -30 3 -13 6 14 2 50 9 80
15 l55 10 -35 12 c-29 10 -38 10 -53 -2 -9 -9 -20 -12 -24 -9 -3 4 -1 7 5 7 7
0 12 7 12 15 0 12 -5 12 -32 -3 -18 -9 -46 -19 -63 -20 l-30 -3 23 16 c37 27
27 36 -30 29 -29 -4 -50 -3 -46 1 4 5 2 15 -5 23 -10 13 -9 14 10 4 17 -9 22
-9 26 2 3 8 18 16 34 19 l28 4 -30 2 c-17 0 -38 10 -48 21 -10 12 -22 18 -28
14 -6 -4 -15 -1 -19 6 -4 7 -13 9 -19 6 -6 -4 -8 -13 -4 -19 5 -9 3 -9 -8 -1
-11 9 -17 9 -27 -2 -14 -15 -12 -16 47 -18 22 0 37 2 34 7 -8 13 8 7 24 -8 21
-21 13 -26 -24 -16 -17 5 -36 5 -44 0 -13 -8 -12 -10 10 -13 5 0 13 -5 18 -10
5 -5 3 -6 -4 -2 -8 4 -13 2 -13 -6 0 -7 -11 0 -25 15 -31 33 -38 33 -62 4 -10
-13 -24 -22 -32 -19 -10 3 -8 9 10 22 21 17 22 20 9 44 -7 14 -20 26 -29 26
-13 1 -12 4 4 17 16 13 17 15 3 10 -10 -4 -18 -1 -18 5 0 6 -3 8 -7 4 -12 -12
-12 -40 0 -56 10 -13 10 -13 -4 -3 -9 7 -19 10 -23 6 -4 -4 -4 1 0 11 5 14 4
17 -5 11 -8 -4 -16 -2 -21 5 -5 9 -9 9 -14 1 -4 -6 -2 -11 3 -11 6 0 11 -7 11
-15 0 -8 -5 -15 -10 -15 -6 0 -9 3 -8 7 3 11 -34 86 -45 95 -12 7 -37 -13 -30
-24 2 -5 -5 -8 -17 -8 -14 0 -19 4 -14 12 5 8 2 9 -10 5 -14 -6 -17 -3 -12 9
5 14 4 15 -9 4 -18 -15 -25 -10 -28 18 0 11 -6 20 -11 19 -6 -1 -12 8 -14 21
-3 22 -22 32 -22 12 0 -6 -6 -5 -14 2 -7 7 -12 18 -9 24 4 11 -44 64 -58 64
-3 0 -6 -7 -6 -15 0 -8 3 -12 7 -10 4 2 7 -2 7 -9 0 -8 -6 -12 -12 -10 -7 3
-28 -11 -48 -30 -20 -19 -31 -36 -26 -38 6 -2 8 -10 4 -18 -7 -21 -69 -24 -85
-4 -10 11 -15 12 -20 3 -4 -6 -7 0 -7 15 0 21 4 26 24 26 13 0 22 4 18 9 -3 5
3 12 12 14 10 2 6 3 -9 1 -16 -2 -28 1 -28 6 0 6 5 10 11 10 8 0 8 5 -1 15 -7
8 -9 15 -5 15 4 0 0 12 -10 26 -9 15 -12 23 -6 20 6 -4 11 0 11 9 0 10 -5 13
-12 9 -7 -4 -5 2 5 13 9 11 17 24 17 29 0 5 -5 2 -11 -6 -9 -12 -10 -10 -6 8
4 17 1 22 -11 20 -10 -2 -20 -7 -24 -13 -5 -6 -11 -5 -17 3 -4 7 -14 14 -22
15 -8 2 -20 6 -26 10 -10 6 -11 2 -3 -17 13 -34 -2 -33 -17 1 -10 21 -10 29 0
35 7 5 1 7 -16 4 -24 -4 -27 -3 -16 10 9 11 9 18 1 26 -17 17 -15 31 3 25 8
-4 17 -2 20 3 4 6 -8 10 -27 10 -25 0 -29 3 -18 10 8 5 10 10 4 10 -6 0 -17
-7 -24 -15z m17 -92 c1 -19 -1 -22 -8 -12 -11 17 -12 39 -1 39 4 0 8 -12 9
-27z m148 -93 c-3 -5 -11 -10 -16 -10 -6 0 -7 5 -4 10 3 6 11 10 16 10 6 0 7
-4 4 -10z m-65 -73 c11 -5 9 -6 -4 -4 -11 1 -21 9 -23 17 -3 10 -2 11 4 4 4
-6 15 -14 23 -17z m265 -61 c-16 -12 -17 -16 -6 -30 12 -14 11 -16 -7 -16 -12
0 -26 10 -33 21 -8 15 -8 19 0 15 6 -4 16 -4 22 0 8 4 7 9 -2 15 -10 6 -5 9
15 9 28 0 29 -1 11 -14z m74 -13 c10 -10 17 -26 16 -35 -4 -21 11 -24 18 -5 4
9 6 9 6 -1 1 -17 -32 -29 -37 -14 -2 7 -9 9 -14 6 -6 -4 -8 -2 -5 3 4 6 0 16
-8 23 -17 14 -20 40 -5 40 6 0 19 -8 29 -17z m-274 -2 c3 -5 2 -12 -3 -15 -5
-3 -9 1 -9 9 0 17 3 19 12 6z m-113 -43 c-7 -7 -12 -8 -12 -2 0 14 12 26 19
19 2 -3 -1 -11 -7 -17z m348 -8 c0 -5 -4 -10 -10 -10 -5 0 -10 5 -10 10 0 6 5
10 10 10 6 0 10 -4 10 -10z m20 -50 c0 -5 -7 -7 -15 -4 -8 4 -15 8 -15 10 0 2
7 4 15 4 8 0 15 -4 15 -10z m214 -5 c4 -13 2 -14 -14 -5 -23 13 -26 20 -6 20
8 0 16 -7 20 -15z m141 -65 c8 -13 -5 -13 -25 0 -13 8 -13 10 2 10 9 0 20 -4
23 -10z m50 -46 c-18 -13 -35 -11 -35 5 0 5 12 9 27 9 25 0 25 -1 8 -14z"/>
<path d="M1800 650 c0 -5 5 -10 11 -10 5 0 7 5 4 10 -3 6 -8 10 -11 10 -2 0
-4 -4 -4 -10z"/>
<path d="M190 640 c0 -5 5 -10 11 -10 5 0 7 5 4 10 -3 6 -8 10 -11 10 -2 0 -4
-4 -4 -10z"/>
<path d="M327 639 c7 -7 15 -10 18 -7 3 3 -2 9 -12 12 -14 6 -15 5 -6 -5z"/>
<path d="M234 606 c-3 -8 -1 -23 5 -33 9 -15 10 -13 9 15 -2 35 -6 39 -14 18z"/>
<path d="M1725 581 c-3 -5 -2 -12 3 -15 5 -3 9 1 9 9 0 17 -3 19 -12 6z"/>
<path d="M315 565 c-3 -8 -7 -21 -9 -29 -3 -8 0 -17 7 -20 9 -5 9 -7 0 -12 -7
-3 -13 -10 -13 -15 0 -6 5 -7 12 -3 8 5 9 2 5 -9 -8 -21 -3 -21 18 -1 13 13
18 14 31 3 14 -12 14 -14 -3 -20 -14 -6 -13 -8 10 -8 20 -1 27 4 27 17 0 11
11 24 25 30 14 6 25 16 25 22 0 7 -7 4 -16 -4 -23 -24 -36 -19 -67 24 -30 42
-45 49 -52 25z"/>
<path d="M1685 550 c28 -12 37 -12 30 0 -3 6 -16 10 -28 9 -21 0 -21 -1 -2 -9z"/>
<path d="M1780 540 c8 -15 7 -18 -2 -15 -7 2 -22 -2 -32 -10 -18 -14 -18 -15
6 -47 14 -18 28 -40 31 -48 3 -8 5 1 4 22 -2 28 -5 34 -14 26 -10 -8 -13 -5
-13 10 0 20 24 37 48 33 7 -1 3 9 -9 23 -27 31 -33 33 -19 6z"/>
<path d="M1807 549 c7 -7 15 -10 18 -7 3 3 -2 9 -12 12 -14 6 -15 5 -6 -5z"/>
<path d="M405 540 c-3 -5 -2 -10 4 -10 5 0 13 5 16 10 3 6 2 10 -4 10 -5 0
-13 -4 -16 -10z"/>
<path d="M27 533 c-4 -3 -7 -13 -7 -22 1 -13 3 -13 11 2 11 19 8 33 -4 20z"/>
<path d="M1657 518 c-3 -10 -1 -16 4 -12 15 9 35 -44 21 -58 -9 -9 -15 -9 -23
-1 -14 14 -52 4 -45 -12 5 -15 -21 -28 -36 -19 -6 4 -6 -1 1 -13 6 -11 8 -23
5 -26 -3 -3 4 -8 15 -12 12 -3 19 -11 15 -16 -3 -6 -12 -8 -20 -5 -8 3 -14 -1
-14 -9 0 -19 -16 -19 -24 0 -8 22 -36 18 -36 -5 0 -14 -5 -18 -17 -13 -16 6
-16 5 -5 -10 8 -8 13 -24 12 -34 -4 -30 -1 -43 10 -43 5 0 7 7 4 15 -5 13 -3
13 22 0 34 -18 54 -19 54 -4 0 5 -4 8 -9 4 -5 -3 -12 -1 -15 4 -4 5 -2 12 4
16 11 7 14 28 3 22 -5 -3 -17 5 -28 16 l-20 20 21 -11 c12 -6 24 -9 27 -6 8 8
48 -21 42 -29 -3 -4 -2 -5 1 -2 4 2 13 -2 21 -10 8 -8 22 -19 31 -25 15 -8 15
-11 2 -20 -13 -9 -13 -10 0 -10 9 0 24 10 35 23 l20 22 3 -25 c2 -14 8 -29 14
-35 8 -7 9 -6 4 2 -3 6 -2 31 3 55 8 34 7 40 -2 27 -7 -9 -18 -14 -26 -11 -8
2 -11 0 -8 -5 11 -17 -46 -12 -65 5 -23 19 -23 33 -1 25 10 -4 14 -2 10 4 -4
6 -4 13 0 16 5 2 3 3 -3 1 -15 -3 -34 16 -34 36 1 12 4 11 15 -4 13 -17 15
-18 15 -3 0 9 5 17 10 17 6 0 10 7 10 15 0 8 5 15 11 15 6 0 9 -6 6 -14 -3 -8
5 -18 19 -25 33 -15 39 -14 24 4 -7 8 -17 12 -22 9 -12 -8 -6 29 7 38 6 5 5 8
-2 8 -19 0 -16 27 5 40 15 10 14 11 -6 6 -15 -3 -22 0 -19 7 2 6 -2 23 -9 36
-7 14 -11 28 -9 31 2 4 -2 7 -10 7 -7 0 -16 -9 -18 -19z m-7 -128 c-6 -12 -14
-19 -17 -17 -3 3 -1 12 3 19 5 7 9 16 10 21 4 19 6 21 10 10 3 -7 0 -22 -6
-33z"/>
<path d="M1627 497 c-3 -9 1 -18 9 -21 16 -6 18 2 5 22 -7 11 -9 11 -14 -1z"/>
<path d="M1565 461 c-3 -5 -2 -12 3 -15 5 -3 9 1 9 9 0 17 -3 19 -12 6z"/>
<path d="M266 453 c-2 -3 7 -16 22 -29 15 -13 21 -24 15 -24 -7 0 -13 -4 -13
-9 0 -5 18 -9 40 -9 22 0 44 -4 50 -7 5 -3 10 -1 10 4 0 6 -6 11 -12 11 -10 0
-10 2 -1 8 9 6 7 11 -7 20 -16 10 -18 9 -15 -8 3 -13 -2 -20 -12 -20 -9 0 -13
6 -9 15 3 8 0 15 -6 15 -6 0 -6 6 3 18 7 9 10 14 5 10 -4 -3 -20 -2 -36 2 -16
4 -31 6 -34 3z"/>
<path d="M1868 450 c16 -19 15 -40 -2 -40 -8 0 -16 -6 -19 -14 -4 -9 2 -13 16
-12 29 1 36 47 10 66 -15 12 -16 12 -5 0z"/>
<path d="M1806 413 c7 -4 14 -17 17 -28 5 -16 5 -15 4 4 -1 14 -9 26 -17 28
-10 3 -11 2 -4 -4z"/>
<path d="M1550 392 c0 -5 7 -9 15 -9 8 0 12 4 9 9 -3 4 -9 8 -15 8 -5 0 -9 -4
-9 -8z"/>
<path d="M1782 370 c0 -14 2 -19 5 -12 2 6 2 18 0 25 -3 6 -5 1 -5 -13z"/>
<path d="M530 369 c0 -6 7 -8 16 -5 12 5 15 2 10 -9 -3 -9 -2 -14 3 -11 5 3
12 -1 15 -10 4 -9 9 -14 13 -11 3 4 13 1 22 -5 9 -7 6 -1 -6 13 -13 14 -23 31
-23 37 0 7 -11 12 -25 12 -14 0 -25 -5 -25 -11z"/>
<path d="M1540 366 c0 -2 7 -9 15 -16 12 -10 15 -10 15 4 0 9 -7 16 -15 16 -8
0 -15 -2 -15 -4z"/>
<path d="M1873 340 c0 -16 4 -30 9 -30 4 0 7 14 6 30 -1 17 -5 30 -8 30 -4 0
-7 -13 -7 -30z"/>
<path d="M1699 338 c-7 -25 -3 -48 10 -53 8 -3 12 -3 8 1 -4 4 -3 12 2 18 6 7
4 16 -5 24 -8 7 -14 11 -15 10z"/>
<path d="M1769 323 c-13 -17 -13 -17 6 -3 11 8 22 16 24 17 2 2 0 3 -6 3 -6 0
-17 -8 -24 -17z"/>
<path d="M1825 309 c-4 -6 -5 -12 -2 -15 2 -3 7 2 10 11 7 17 1 20 -8 4z"/>
<path d="M717 303 c-10 -9 -9 -23 2 -23 5 0 11 7 15 15 5 15 -5 20 -17 8z"/>
<path d="M750 300 c0 -5 5 -10 10 -10 6 0 10 5 10 10 0 6 -4 10 -10 10 -5 0
-10 -4 -10 -10z"/>
<path d="M1873 280 c3 -10 0 -21 -6 -23 -6 -2 -4 -6 4 -9 12 -5 15 1 15 23 0
16 -4 29 -9 29 -5 0 -7 -9 -4 -20z"/>
<path d="M765 280 c-19 -8 -19 -9 3 -9 12 -1 22 4 22 9 0 6 -1 10 -2 9 -2 0
-12 -4 -23 -9z"/>
<path d="M1447 276 c-4 -10 -1 -13 8 -9 8 3 12 9 9 14 -7 12 -11 11 -17 -5z"/>
<path d="M750 245 c0 -9 5 -15 11 -13 6 2 11 8 11 13 0 5 -5 11 -11 13 -6 2
-11 -4 -11 -13z"/>
<path d="M1456 244 c-3 -8 -11 -12 -17 -9 -9 6 -89 -41 -89 -52 0 -2 18 6 40
18 31 18 43 20 52 11 16 -16 -3 -36 -35 -37 -12 -1 -23 -6 -24 -11 -3 -12 27
-13 50 -2 14 7 17 4 17 -20 0 -20 -7 -32 -22 -40 -16 -7 -18 -11 -7 -11 18 -1
120 94 111 103 -3 3 0 6 6 6 18 0 14 -15 -8 -35 -11 -10 -20 -24 -20 -32 0 -7
-8 -17 -17 -20 -15 -6 -14 -8 7 -13 14 -4 33 -3 43 2 10 5 25 7 33 4 8 -3 12
-2 9 3 -3 5 -1 12 5 16 6 4 8 10 5 15 -3 5 -1 11 5 15 6 4 7 12 3 18 -4 7 -8
18 -9 25 -3 17 -4 18 -30 26 -14 4 -28 1 -38 -10 -19 -19 -24 -16 -29 14 -4
30 -17 40 -17 14 0 -12 -4 -22 -9 -22 -5 0 -7 9 -4 20 6 24 -2 27 -11 4z m32
-73 c-7 -9 -13 -17 -14 -19 -1 -2 -1 8 0 21 0 15 6 23 14 20 10 -4 10 -9 0
-22z m67 -20 c3 -6 -4 -15 -15 -21 -19 -10 -20 -10 -8 9 15 24 15 24 23 12z"/>
<path d="M890 230 c0 -5 5 -10 11 -10 5 0 7 5 4 10 -3 6 -8 10 -11 10 -2 0 -4
-4 -4 -10z"/>
<path d="M1605 220 c-4 -6 -2 -10 3 -10 5 0 9 -20 8 -44 -1 -40 2 -46 29 -62
l30 -17 -21 24 c-23 26 -42 85 -24 74 5 -3 10 2 10 13 0 22 -26 37 -35 22z"/>
<path d="M1667 188 c-22 -12 -22 -42 0 -59 9 -8 14 -9 10 -3 -9 15 33 26 49
13 16 -13 31 8 16 23 -7 7 -17 6 -30 -1 -29 -16 -42 -14 -42 7 0 13 2 14 9 4
6 -10 10 -10 20 1 15 19 -7 29 -32 15z"/>
<path d="M1832 150 c15 -23 28 -26 28 -6 0 8 -7 17 -16 20 -24 9 -25 8 -12
-14z"/>
<path d="M1695 120 c-3 -5 1 -10 10 -10 9 0 13 5 10 10 -3 6 -8 10 -10 10 -2
0 -7 -4 -10 -10z"/>
<path d="M1198 93 c7 -3 16 -2 19 1 4 3 -2 6 -13 5 -11 0 -14 -3 -6 -6z"/>
<path d="M1560 70 c0 -13 11 -13 30 0 12 8 11 10 -7 10 -13 0 -23 -4 -23 -10z"/>
</g>
</svg>
